<svg width="613" height="432" viewBox="0 0 613 432" fill="none" xmlns="http://www.w3.org/2000/svg">
<g clip-path="url(#clip0_11_359)">
<path d="M241.05 271.112C241.239 269.827 241.144 268.517 240.772 267.273C240.399 266.028 239.759 264.881 238.896 263.911C238.033 262.942 236.968 262.173 235.776 261.66C234.584 261.146 233.294 260.901 231.997 260.941L175.142 203.414L163.911 219.126L223.328 270.732C223.539 272.909 224.541 274.932 226.143 276.419C227.745 277.906 229.836 278.753 232.021 278.799C234.205 278.846 236.331 278.09 237.995 276.673C239.659 275.256 240.746 273.278 241.05 271.112Z" fill="#FFB8B8"/>
<path d="M214.118 237.895L199.607 252.401C198.912 253.091 197.974 253.481 196.994 253.485C196.015 253.489 195.073 253.107 194.372 252.422L154.72 213.409C153.349 212.06 152.259 210.452 151.512 208.679C150.766 206.906 150.379 205.002 150.372 203.078C150.366 201.154 150.741 199.248 151.475 197.47C152.209 195.692 153.289 194.077 154.651 192.719C156.013 191.36 157.63 190.286 159.409 189.557C161.189 188.829 163.095 188.46 165.018 188.474C166.94 188.487 168.841 188.881 170.611 189.634C172.38 190.387 173.982 191.484 175.326 192.861L214.151 232.663C214.832 233.365 215.21 234.307 215.204 235.285C215.198 236.264 214.808 237.201 214.118 237.895Z" fill="#23B6E7"/>
<path d="M163.226 166.692C174.434 166.692 183.521 157.599 183.521 146.382C183.521 135.165 174.434 126.072 163.226 126.072C152.017 126.072 142.93 135.165 142.93 146.382C142.93 157.599 152.017 166.692 163.226 166.692Z" fill="#FFB8B8"/>
<path d="M94.6488 389.767L99.7877 398.503L135.908 382.825L128.323 369.93L94.6488 389.767Z" fill="#FFB8B8"/>
<path d="M96.1887 385.859L106.309 403.065L106.309 403.066C107.156 404.506 107.711 406.098 107.943 407.753C108.175 409.408 108.079 411.092 107.66 412.709C107.242 414.327 106.509 415.846 105.504 417.18C104.498 418.514 103.24 419.637 101.801 420.484L101.445 420.694L84.8756 392.523L96.1887 385.859Z" fill="#2F2E41"/>
<path d="M154.191 421.241H164.321L169.14 382.137L154.189 382.138L154.191 421.241Z" fill="#FFB8B8"/>
<path d="M151.607 417.931L171.557 417.931H171.558C173.228 417.931 174.881 418.26 176.424 418.899C177.966 419.538 179.368 420.476 180.548 421.657C181.729 422.838 182.666 424.241 183.305 425.785C183.943 427.328 184.272 428.983 184.272 430.654V431.067L151.608 431.068L151.607 417.931Z" fill="#2F2E41"/>
<path d="M113.463 397.55C112.88 397.55 112.305 397.413 111.785 397.15C111.264 396.887 110.813 396.504 110.468 396.034L100.698 382.755C100.4 382.35 100.187 381.888 100.072 381.399C99.9574 380.909 99.9429 380.401 100.03 379.906C100.117 379.41 100.303 378.937 100.578 378.516C100.852 378.095 101.209 377.733 101.627 377.454L145.103 348.395L118.87 279.368L174.968 284L176.858 343.319C177.035 348.721 175.741 354.069 173.115 358.792C170.488 363.515 166.628 367.434 161.947 370.131L115.321 397.05C114.756 397.377 114.115 397.55 113.463 397.55Z" fill="#2F2E41"/>
<path d="M154.497 413.303C153.535 413.301 152.611 412.926 151.919 412.257C151.227 411.588 150.822 410.676 150.787 409.714L148.732 351.927L174.189 350.585L172.162 408.787C172.132 409.709 171.76 410.587 171.119 411.249C170.477 411.912 169.612 412.311 168.692 412.37L154.749 413.295C154.665 413.3 154.581 413.303 154.497 413.303Z" fill="#2F2E41"/>
<path d="M181.461 295.476C174.984 295.476 152.361 288.185 144.507 285.586C143.332 286.527 136.877 291.357 129.343 290.474C124.694 289.929 120.601 287.295 117.179 282.647C109.62 272.381 118.956 228.358 128.118 193.235C129.955 186.135 134.471 180.025 140.716 176.188C146.962 172.351 154.45 171.087 161.608 172.661C166.796 173.807 171.561 176.378 175.369 180.085C179.177 183.793 181.877 188.489 183.164 193.647C184.89 200.674 183.406 208.94 182.322 214.976C181.813 217.814 181.41 220.056 181.548 221.157C182.08 225.415 185.034 292.183 183.134 295.035C182.932 295.338 182.347 295.476 181.461 295.476Z" fill="#23B6E7"/>
<path d="M157.766 295.594C158.807 294.818 159.665 293.824 160.281 292.68C160.896 291.537 161.253 290.273 161.328 288.976C161.402 287.679 161.191 286.382 160.71 285.176C160.229 283.97 159.49 282.884 158.544 281.995L158.945 201.085L139.903 204.259L145.496 282.792C144.109 284.481 143.388 286.62 143.472 288.805C143.555 290.99 144.437 293.069 145.949 294.647C147.462 296.225 149.5 297.193 151.678 297.367C153.856 297.542 156.022 296.911 157.766 295.594Z" fill="#FFB8B8"/>
<path d="M162.17 253.046H141.66C140.68 253.043 139.741 252.654 139.045 251.965C138.35 251.275 137.953 250.339 137.941 249.358L137.438 193.713C137.42 191.789 137.784 189.88 138.508 188.098C139.233 186.315 140.303 184.694 141.657 183.328C143.011 181.962 144.623 180.879 146.398 180.14C148.174 179.401 150.078 179.022 152.001 179.024C153.923 179.027 155.827 179.41 157.6 180.154C159.374 180.897 160.983 181.984 162.334 183.354C163.684 184.723 164.751 186.347 165.471 188.131C166.19 189.915 166.55 191.825 166.527 193.749L165.889 249.367C165.874 250.346 165.476 251.279 164.781 251.967C164.086 252.655 163.148 253.042 162.17 253.046Z" fill="#23B6E7"/>
<path d="M158.058 166.608C148.766 166.625 140 159.275 138.389 150.116C137.813 146.518 138.073 142.836 139.149 139.355C140.317 135.392 142.321 131.726 145.025 128.604C147.729 125.482 151.071 122.976 154.825 121.256C158.579 119.535 162.657 118.64 166.786 118.631C170.915 118.622 174.997 119.498 178.759 121.202C181.244 122.327 183.693 123.944 184.831 126.426C185.969 128.907 185.257 132.376 182.767 133.492C181.14 134.222 179.098 133.864 177.655 134.911C175.581 136.415 176.115 139.617 177.041 142.007C177.967 144.397 179.014 147.288 177.462 149.327C176.015 151.227 173.125 151.168 170.848 150.453C168.571 149.738 166.323 148.54 163.949 148.784C160.486 149.139 157.998 152.586 157.537 156.039C157.077 159.491 158.161 162.943 159.232 166.257L158.058 166.608Z" fill="#2F2E41"/>
<path d="M412.017 187.336C412.017 131.795 457.009 0 512.508 0C568.008 0 613 131.795 613 187.336C613 214.008 602.412 239.587 583.567 258.446C564.721 277.306 539.16 287.901 512.508 287.901C485.856 287.901 460.296 277.306 441.45 258.446C422.604 239.587 412.017 214.008 412.017 187.336Z" fill="#23B6E7"/>
<path d="M512.508 432C512.289 432 512.079 431.913 511.924 431.758C511.769 431.603 511.682 431.392 511.682 431.173V84.4569C511.682 84.2376 511.769 84.0272 511.924 83.8721C512.079 83.7171 512.289 83.6299 512.508 83.6299C512.728 83.6299 512.938 83.7171 513.093 83.8721C513.248 84.0272 513.335 84.2376 513.335 84.4569V431.173C513.335 431.392 513.248 431.603 513.093 431.758C512.938 431.913 512.728 432 512.508 432Z" fill="#3F3D56"/>
<path d="M512.508 151.393C512.4 151.393 512.292 151.372 512.192 151.33C512.092 151.289 512.001 151.228 511.924 151.151L472.15 111.347C471.996 111.192 471.911 110.982 471.912 110.764C471.912 110.545 471.999 110.336 472.154 110.182C472.308 110.027 472.517 109.94 472.735 109.939C472.953 109.939 473.163 110.024 473.318 110.178L513.093 149.981C513.208 150.097 513.287 150.244 513.319 150.405C513.351 150.565 513.334 150.731 513.272 150.882C513.209 151.034 513.103 151.163 512.967 151.253C512.832 151.344 512.672 151.393 512.508 151.393V151.393Z" fill="#3F3D56"/>
<path d="M512.509 220.301C512.345 220.301 512.185 220.252 512.049 220.161C511.914 220.07 511.808 219.941 511.745 219.79C511.683 219.639 511.666 219.473 511.698 219.312C511.73 219.152 511.809 219.005 511.924 218.889L578.534 152.23C578.689 152.077 578.899 151.991 579.117 151.992C579.335 151.993 579.544 152.08 579.698 152.234C579.852 152.389 579.939 152.598 579.94 152.816C579.941 153.034 579.855 153.244 579.702 153.4L513.093 220.058C513.016 220.135 512.925 220.196 512.825 220.238C512.725 220.279 512.617 220.301 512.509 220.301Z" fill="#3F3D56"/>
<path d="M234.408 270.642C247.591 267.659 262.527 277.979 262.99 291.834C263.121 295.731 261.979 299.823 258.983 302.474C256.509 304.663 252.828 305.767 249.63 304.697C243.476 302.638 243.148 294.057 246.449 289.474C250.919 283.268 259.774 282.208 266.8 282.946C275.391 283.849 283.555 287.618 290.407 292.785C304.123 303.128 312.856 318.98 319.925 334.296C327.162 350.007 332.424 366.556 335.592 383.563C335.99 385.699 336.355 387.841 336.687 389.989C336.781 390.303 336.995 390.568 337.282 390.726C337.57 390.884 337.908 390.923 338.224 390.833C338.535 390.734 338.796 390.519 338.953 390.233C339.11 389.947 339.151 389.611 339.068 389.295C336.174 370.736 330.829 352.644 323.174 335.494C315.772 318.896 306.441 301.678 291.596 290.601C284.196 285.079 275.458 281.237 266.21 280.415C258.425 279.723 249.206 281.371 244.364 288.148C240.545 293.493 240.933 302.378 246.842 306.101C250.092 308.147 254.22 307.908 257.594 306.317C259.384 305.432 260.961 304.168 262.214 302.613C263.468 301.058 264.368 299.249 264.854 297.311C266.952 289.616 263.766 281.293 258.303 275.793C253.175 270.617 246.207 267.684 238.924 267.638C237.17 267.657 235.424 267.866 233.715 268.26C232.158 268.612 232.854 270.993 234.408 270.642V270.642Z" fill="#CCCCCC"/>
<path d="M297.987 423.013L289.795 409.015L299.897 403.093L308.09 417.091V417.091C308.874 418.432 309.095 420.03 308.702 421.533C308.31 423.036 307.337 424.322 305.997 425.107C304.657 425.892 303.061 426.113 301.559 425.72C300.057 425.327 298.772 424.353 297.987 423.013Z" fill="#23B6E7"/>
<path d="M270.899 393.917C274.878 393.917 278.103 390.689 278.103 386.707C278.103 382.725 274.878 379.497 270.899 379.497C266.919 379.497 263.694 382.725 263.694 386.707C263.694 390.689 266.919 393.917 270.899 393.917Z" fill="#23B6E7"/>
<path d="M329.686 423.013L321.493 409.015L331.595 403.093L339.788 417.091C340.571 418.432 340.79 420.028 340.397 421.53C340.004 423.032 339.032 424.317 337.693 425.102C336.354 425.886 334.759 426.107 333.258 425.716C331.756 425.324 330.472 424.352 329.686 423.013Z" fill="#23B6E7"/>
<path d="M272.267 401.232C272.272 397.17 273.886 393.275 276.756 390.403C279.627 387.531 283.518 385.915 287.577 385.911H336.042C337.757 385.913 339.402 386.596 340.615 387.81C341.828 389.024 342.511 390.67 342.512 392.387V397.905C342.507 402.849 340.542 407.589 337.049 411.085C333.555 414.581 328.819 416.547 323.879 416.553H287.577C283.518 416.548 279.627 414.933 276.756 412.06C273.886 409.188 272.272 405.294 272.267 401.232Z" fill="#3F3D56"/>
<path d="M283.444 424.818V408.596H295.151V424.818C295.151 426.372 294.534 427.862 293.437 428.96C292.339 430.059 290.85 430.676 289.297 430.676C287.745 430.676 286.256 430.059 285.158 428.96C284.06 427.862 283.444 426.372 283.444 424.818Z" fill="#3F3D56"/>
<path d="M317.416 424.818V408.596H329.123V424.818C329.124 425.588 328.973 426.35 328.68 427.062C328.386 427.773 327.955 428.42 327.411 428.965C326.867 429.509 326.222 429.942 325.511 430.236C324.8 430.531 324.039 430.683 323.269 430.683C322.5 430.683 321.738 430.531 321.028 430.236C320.317 429.942 319.671 429.509 319.128 428.965C318.584 428.42 318.153 427.773 317.859 427.062C317.565 426.35 317.415 425.588 317.416 424.818Z" fill="#3F3D56"/>
<path d="M365.049 360.635C366.247 359.149 367.985 358.199 369.882 357.993C371.78 357.788 373.681 358.344 375.169 359.54C376.656 360.736 377.609 362.474 377.818 364.372C378.027 366.27 377.475 368.174 376.283 369.665L364.441 384.421L353.206 375.391L365.049 360.635Z" fill="#23B6E7"/>
<path d="M336.522 389.704L346.009 377.883C348.316 375.015 351.666 373.18 355.323 372.78C358.98 372.381 362.646 373.449 365.517 375.751L368.481 378.134C371.898 380.886 374.084 384.883 374.56 389.246C375.036 393.61 373.763 397.984 371.02 401.41L363.204 411.149C362.34 412.223 361.086 412.91 359.717 413.059C358.347 413.209 356.975 412.809 355.9 411.947L337.319 397.013C336.246 396.149 335.56 394.894 335.41 393.523C335.261 392.153 335.66 390.78 336.522 389.704Z" fill="#3F3D56"/>
<path d="M366.459 358.879C366.866 358.371 367.369 357.949 367.94 357.636C368.51 357.323 369.136 357.126 369.783 357.055C370.43 356.984 371.084 357.042 371.708 357.224C372.333 357.407 372.915 357.71 373.422 358.118C373.929 358.526 374.351 359.029 374.664 359.6C374.977 360.171 375.174 360.798 375.244 361.445C375.315 362.092 375.258 362.746 375.075 363.371C374.893 363.996 374.59 364.579 374.182 365.087L360.93 381.599L353.206 375.392L366.459 358.879Z" fill="#3F3D56"/>
<path d="M347.474 386.48L367.836 402.846C369.32 404.046 370.269 405.785 370.473 407.683C370.678 409.581 370.122 411.483 368.927 412.971C367.733 414.459 365.997 415.413 364.101 415.622C362.205 415.832 360.304 415.281 358.813 414.089L338.451 397.723L347.474 386.48Z" fill="#3F3D56"/>
<path d="M369.814 413.517C370.865 412.207 371.127 410.671 370.4 410.087C369.673 409.503 368.232 410.091 367.18 411.4C366.129 412.71 365.867 414.246 366.594 414.83C367.321 415.414 368.762 414.826 369.814 413.517Z" fill="#23B6E7"/>
<path d="M571.811 431.847H0.826317C0.607164 431.847 0.396986 431.76 0.242022 431.605C0.0870575 431.449 0 431.239 0 431.02C0 430.8 0.0870575 430.59 0.242022 430.435C0.396986 430.28 0.607164 430.193 0.826317 430.193H571.811C572.03 430.193 572.241 430.28 572.396 430.435C572.551 430.59 572.638 430.8 572.638 431.02C572.638 431.239 572.551 431.449 572.396 431.605C572.241 431.76 572.03 431.847 571.811 431.847Z" fill="#CCCCCC"/>
</g>
<defs>
<clipPath id="clip0_11_359">
<rect width="613" height="432" fill="white"/>
</clipPath>
</defs>
</svg>
