<svg width="236" height="124" viewBox="0 0 236 124" fill="none" xmlns="http://www.w3.org/2000/svg">
<path d="M21.296 86.592C21.296 87.4027 20.992 88.0107 20.384 88.416C19.776 88.8213 19.0667 89.024 18.256 89.024C17.344 89.024 16.3813 88.1627 15.368 86.44C14.456 84.7173 13.544 82.5387 12.632 79.904C11.72 77.2693 10.8587 74.432 10.048 71.392C9.23733 68.2507 8.528 65.3627 7.92 62.728C7.312 59.992 6.80533 57.712 6.4 55.888C6.096 54.064 5.944 53.0507 5.944 52.848C5.944 52.4427 5.74133 51.3787 5.336 49.656C5.032 47.9333 4.576 45.248 3.968 41.6C3.46133 37.952 2.85333 33.24 2.144 27.464C1.536 21.5867 0.877334 14.3413 0.168 5.72799C0.168 4.81599 0.32 3.65066 0.624 2.23199C0.928 0.813326 1.63733 0.103992 2.752 0.103992C4.17067 0.103992 5.23467 1.06666 5.944 2.99199C6.75467 4.91733 7.36267 7.29867 7.768 10.136C8.27467 12.9733 8.62933 15.9627 8.832 19.104C9.03467 22.144 9.288 24.8293 9.592 27.16C9.99733 30.4027 10.352 33.3413 10.656 35.976C11.0613 38.6107 11.416 41.2453 11.72 43.88C12.1253 46.4133 12.5813 49.0987 13.088 51.936C13.696 54.7733 14.4053 57.9147 15.216 61.36L21.296 86.592ZM83.1505 65.768C83.1505 66.68 82.5425 67.6427 81.3265 68.656C80.1105 69.6693 78.6918 70.632 77.0705 71.544C75.4492 72.3547 73.7772 73.064 72.0545 73.672C70.4332 74.28 69.2172 74.584 68.4065 74.584C67.4945 74.584 66.4812 74.3307 65.3665 73.824C64.3532 73.3173 63.3398 72.7093 62.3265 72C61.4145 71.2907 60.6038 70.632 59.8945 70.024C59.1852 69.416 58.7292 69.0107 58.5265 68.808C58.2225 69.112 57.7665 69.72 57.1585 70.632C56.5505 71.544 55.7905 72.5573 54.8785 73.672C54.0678 74.6853 53.1558 75.5973 52.1425 76.408C51.2305 77.2187 50.2678 77.624 49.2545 77.624C46.6198 77.624 44.3398 76.2053 42.4145 73.368C40.4892 70.5307 38.8678 67.288 37.5505 63.64C36.3345 59.992 35.3718 56.496 34.6625 53.152C34.0545 49.7067 33.7505 47.376 33.7505 46.16C33.7505 45.4507 34.1052 44.8933 34.8145 44.488C35.6252 43.9813 36.2332 43.728 36.6385 43.728C38.0572 43.728 39.0198 44.2347 39.5265 45.248C40.0332 46.16 40.2865 47.1733 40.2865 48.288C40.2865 49.2 40.5398 50.8213 41.0465 53.152C41.6545 55.4827 42.3638 57.864 43.1745 60.296C43.9852 62.728 44.8465 64.9067 45.7585 66.832C46.6705 68.656 47.4812 69.568 48.1905 69.568C49.5078 69.568 50.6225 68.7573 51.5345 67.136C52.5478 65.4133 53.3585 63.488 53.9665 61.36C54.5745 59.1307 55.0305 57.0533 55.3345 55.128C55.6385 53.1013 55.7905 51.784 55.7905 51.176C55.7905 51.0747 55.7905 50.7707 55.7905 50.264C55.8918 49.656 55.9932 49.048 56.0945 48.44C56.1958 47.832 56.2465 47.2747 56.2465 46.768C56.3478 46.2613 56.3985 45.9067 56.3985 45.704C56.3985 44.9947 56.2465 44.5387 55.9425 44.336C55.6385 44.032 55.4865 43.4747 55.4865 42.664C55.4865 42.056 55.7905 41.4987 56.3985 40.992C57.0065 40.384 58.3238 40.08 60.3505 40.08C61.1612 40.08 61.7692 40.3333 62.1745 40.84C62.6812 41.2453 63.0358 41.752 63.2385 42.36C63.4412 42.968 63.5425 43.576 63.5425 44.184C63.6438 44.6907 63.6945 45.0453 63.6945 45.248C63.6945 45.3493 63.6438 46.0587 63.5425 47.376C63.4412 48.6933 63.3398 50.1627 63.2385 51.784C63.2385 53.304 63.1878 54.7733 63.0865 56.192C62.9852 57.6107 62.9345 58.472 62.9345 58.776C62.9345 59.08 63.0865 59.688 63.3905 60.6C63.6945 61.512 64.0492 62.4747 64.4545 63.488C64.9612 64.4 65.5185 65.2613 66.1265 66.072C66.7345 66.7813 67.3932 67.136 68.1025 67.136C69.3185 67.136 70.4332 66.984 71.4465 66.68C72.5612 66.2747 73.5745 65.8693 74.4865 65.464C75.4998 64.9573 76.4118 64.552 77.2225 64.248C78.0332 63.8427 78.7932 63.64 79.5025 63.64C80.4145 63.64 81.2252 63.8427 81.9345 64.248C82.7452 64.6533 83.1505 65.16 83.1505 65.768Z" fill="#F56076"/>
<path d="M138.044 47.072C138.044 49.7067 137.284 52.24 135.764 54.672C134.345 57.104 132.572 59.384 130.444 61.512C128.316 63.5387 125.985 65.464 123.452 67.288C120.919 69.0107 118.588 70.5307 116.46 71.848C114.433 73.2667 112.761 74.432 111.444 75.344C110.127 76.256 109.468 76.9653 109.468 77.472C109.468 78.7893 109.62 80.664 109.924 83.096C110.228 85.4267 110.583 88.0107 110.988 90.848C111.495 93.584 111.951 96.4213 112.356 99.36C112.863 102.299 113.217 104.984 113.42 107.416C113.42 107.517 113.471 107.973 113.572 108.784C113.775 109.595 113.977 110.507 114.18 111.52C114.484 112.533 114.687 113.445 114.788 114.256C114.991 115.168 115.092 115.725 115.092 115.928C115.092 116.637 115.041 117.397 114.94 118.208C114.94 119.12 114.788 119.931 114.484 120.64C114.281 121.451 113.927 122.109 113.42 122.616C112.913 123.123 112.255 123.376 111.444 123.376C110.329 123.376 109.519 122.869 109.012 121.856C108.505 120.944 108.252 120.032 108.252 119.12C108.252 118.917 108.252 118.715 108.252 118.512C108.353 118.309 108.404 118.056 108.404 117.752C108.404 116.637 107.999 113.648 107.188 108.784C106.377 103.92 105.465 98.0933 104.452 91.304C103.439 84.616 102.527 77.4213 101.716 69.72C100.905 61.9173 100.5 54.5707 100.5 47.68C100.5 47.1733 100.551 46.616 100.652 46.008C100.753 45.2987 100.804 44.6907 100.804 44.184C99.7905 44.2853 98.2705 44.7413 96.2439 45.552C94.3185 46.3627 92.3932 47.376 90.4679 48.592C88.5425 49.7067 86.8199 50.9227 85.2999 52.24C83.8812 53.456 83.1719 54.5707 83.1719 55.584H82.1079C81.8039 55.584 81.4492 55.3813 81.0439 54.976C80.5372 54.5707 80.1319 54.1147 79.8279 53.608C79.4225 53.1013 79.0679 52.5947 78.7639 52.088C78.4599 51.5813 78.3079 51.2267 78.3079 51.024C78.3079 48.896 79.5745 46.92 82.1079 45.096C84.6412 43.1707 87.7825 41.4987 91.5319 40.08C95.3825 38.56 99.5879 37.3947 104.148 36.584C108.708 35.672 113.015 35.216 117.068 35.216C121.02 35.216 124.313 35.672 126.948 36.584C129.684 37.496 131.863 38.6107 133.484 39.928C135.105 41.144 136.271 42.4107 136.98 43.728C137.689 45.0453 138.044 46.16 138.044 47.072ZM130.596 46.616C130.596 45.6027 129.329 44.5893 126.796 43.576C124.263 42.4613 121.273 41.904 117.828 41.904C114.788 41.904 112.559 42.0053 111.14 42.208C109.721 42.4107 108.759 42.6133 108.252 42.816C108.049 44.4373 107.897 46.3627 107.796 48.592C107.695 50.8213 107.644 53.1013 107.644 55.432C107.644 57.864 107.695 60.2453 107.796 62.576C107.999 64.8053 108.201 66.68 108.404 68.2C109.823 67.288 111.748 66.072 114.18 64.552C116.713 62.9307 119.196 61.1573 121.628 59.232C124.06 57.2053 126.137 55.128 127.86 53C129.684 50.7707 130.596 48.6427 130.596 46.616ZM195.341 47.072C195.341 49.7067 194.581 52.24 193.061 54.672C191.642 57.104 189.869 59.384 187.741 61.512C185.613 63.5387 183.282 65.464 180.749 67.288C178.215 69.0107 175.885 70.5307 173.757 71.848C171.73 73.2667 170.058 74.432 168.741 75.344C167.423 76.256 166.765 76.9653 166.765 77.472C166.765 78.7893 166.917 80.664 167.221 83.096C167.525 85.4267 167.879 88.0107 168.285 90.848C168.791 93.584 169.247 96.4213 169.653 99.36C170.159 102.299 170.514 104.984 170.717 107.416C170.717 107.517 170.767 107.973 170.869 108.784C171.071 109.595 171.274 110.507 171.477 111.52C171.781 112.533 171.983 113.445 172.085 114.256C172.287 115.168 172.389 115.725 172.389 115.928C172.389 116.637 172.338 117.397 172.237 118.208C172.237 119.12 172.085 119.931 171.781 120.64C171.578 121.451 171.223 122.109 170.717 122.616C170.21 123.123 169.551 123.376 168.741 123.376C167.626 123.376 166.815 122.869 166.309 121.856C165.802 120.944 165.549 120.032 165.549 119.12C165.549 118.917 165.549 118.715 165.549 118.512C165.65 118.309 165.701 118.056 165.701 117.752C165.701 116.637 165.295 113.648 164.485 108.784C163.674 103.92 162.762 98.0933 161.749 91.304C160.735 84.616 159.823 77.4213 159.013 69.72C158.202 61.9173 157.797 54.5707 157.797 47.68C157.797 47.1733 157.847 46.616 157.949 46.008C158.05 45.2987 158.101 44.6907 158.101 44.184C157.087 44.2853 155.567 44.7413 153.541 45.552C151.615 46.3627 149.69 47.376 147.765 48.592C145.839 49.7067 144.117 50.9227 142.597 52.24C141.178 53.456 140.469 54.5707 140.469 55.584H139.405C139.101 55.584 138.746 55.3813 138.341 54.976C137.834 54.5707 137.429 54.1147 137.125 53.608C136.719 53.1013 136.365 52.5947 136.061 52.088C135.757 51.5813 135.605 51.2267 135.605 51.024C135.605 48.896 136.871 46.92 139.405 45.096C141.938 43.1707 145.079 41.4987 148.829 40.08C152.679 38.56 156.885 37.3947 161.445 36.584C166.005 35.672 170.311 35.216 174.365 35.216C178.317 35.216 181.61 35.672 184.245 36.584C186.981 37.496 189.159 38.6107 190.781 39.928C192.402 41.144 193.567 42.4107 194.277 43.728C194.986 45.0453 195.341 46.16 195.341 47.072ZM187.893 46.616C187.893 45.6027 186.626 44.5893 184.093 43.576C181.559 42.4613 178.57 41.904 175.125 41.904C172.085 41.904 169.855 42.0053 168.437 42.208C167.018 42.4107 166.055 42.6133 165.549 42.816C165.346 44.4373 165.194 46.3627 165.093 48.592C164.991 50.8213 164.941 53.1013 164.941 55.432C164.941 57.864 164.991 60.2453 165.093 62.576C165.295 64.8053 165.498 66.68 165.701 68.2C167.119 67.288 169.045 66.072 171.477 64.552C174.01 62.9307 176.493 61.1573 178.925 59.232C181.357 57.2053 183.434 55.128 185.157 53C186.981 50.7707 187.893 48.6427 187.893 46.616ZM235.614 19.864C234.296 26.856 233.08 33.5947 231.966 40.08C231.459 42.816 230.952 45.704 230.446 48.744C229.939 51.6827 229.432 54.6213 228.926 57.56C228.52 60.3973 228.115 63.1333 227.71 65.768C227.406 68.3013 227.152 70.632 226.95 72.76C226.544 76.0027 226.24 79.7013 226.038 83.856C225.835 88.0107 225.632 91.9627 225.43 95.712C225.227 100.069 225.126 104.477 225.126 108.936C225.126 109.848 225.024 110.861 224.822 111.976C224.619 113.091 224.518 114.205 224.518 115.32C224.518 116.333 224.264 117.195 223.758 117.904C223.352 118.613 222.694 118.968 221.782 118.968C220.971 118.968 220.312 118.309 219.806 116.992C219.4 115.776 219.046 114.307 218.742 112.584C218.438 110.963 218.235 109.291 218.134 107.568C218.032 105.947 217.982 104.781 217.982 104.072C217.982 103.261 217.982 102.248 217.982 101.032C217.982 99.9173 218.032 98.1947 218.134 95.864C218.336 93.6347 218.59 90.696 218.894 87.048C219.198 83.2987 219.654 78.4347 220.262 72.456C220.262 72.3547 219.552 71.848 218.134 70.936C216.816 70.024 215.144 68.9093 213.118 67.592C211.192 66.1733 209.166 64.6533 207.038 63.032C205.011 61.4107 203.288 59.84 201.87 58.32C201.667 58.1173 201.363 57.6613 200.958 56.952C200.552 56.2427 200.35 55.3813 200.35 54.368C200.35 53.8613 200.603 53.3547 201.11 52.848C201.616 52.24 202.174 51.936 202.782 51.936C203.187 51.936 203.592 52.1387 203.998 52.544C206.328 54.5707 209.014 56.8507 212.054 59.384C215.094 61.816 218.083 64.0453 221.022 66.072C221.224 64.248 221.63 61.4613 222.238 57.712C222.947 53.9627 223.656 49.96 224.366 45.704C225.075 41.3467 225.734 37.1413 226.342 33.088C227.051 29.0347 227.558 25.792 227.862 23.36C227.862 22.9547 227.963 22.296 228.166 21.384C228.368 20.472 228.672 19.56 229.078 18.648C229.483 17.736 229.939 16.976 230.446 16.368C230.952 15.6587 231.51 15.304 232.118 15.304C232.422 15.304 233.08 15.608 234.094 16.216C235.107 16.7227 235.614 17.9387 235.614 19.864Z" fill="#4EC1EA"/>
</svg>
