<svg width="480" height="465" viewBox="0 0 480 465" fill="none" xmlns="http://www.w3.org/2000/svg">
<g clip-path="url(#clip0_11_35)">
<path d="M261.456 441.224C382.154 441.224 480 430.109 480 416.398C480 402.686 382.154 391.571 261.456 391.571C140.757 391.571 42.912 402.686 42.912 416.398C42.912 430.109 140.757 441.224 261.456 441.224Z" fill="#3F3D56"/>
<path d="M369.841 388.927L373.61 400.734C373.61 400.734 391.763 419.801 385.197 424.969C378.632 430.137 363.902 402.893 363.902 402.893L361.187 389.564L369.841 388.927Z" fill="#FFB8B8"/>
<path d="M335.016 297.54L340.51 295.678C340.51 295.678 349.057 298.161 350.278 306.85C351.499 315.54 360.655 359.607 360.655 359.607C360.655 359.607 364.318 361.469 361.876 364.572C359.434 367.676 374.085 395.605 374.085 395.605L362.487 401.191C362.487 401.191 339.289 376.365 339.289 373.882C339.289 371.4 339.9 368.917 339.9 366.434C339.9 363.952 339.289 363.952 339.9 362.09C340.307 360.467 340.512 358.799 340.51 357.124L336.237 347.194L335.016 297.54Z" fill="#F56076"/>
<path d="M55.1963 340.116C85.6803 340.116 110.393 288.85 110.393 225.61C110.393 162.37 85.6803 111.104 55.1963 111.104C24.7122 111.104 0 162.37 0 225.61C0 288.85 24.7122 340.116 55.1963 340.116Z" fill="#F56076"/>
<path d="M54.6895 226.798C57.4428 176.954 62.9903 143.287 63.0461 142.952L61.8424 142.745C61.7867 143.08 56.2294 176.801 53.4716 226.709C50.9266 272.771 50.3126 342.442 61.8421 412.776L63.0464 412.572C51.5365 342.358 52.149 272.792 54.6895 226.798Z" fill="#3F3D56"/>
<path d="M104.529 202.389L54.6229 229.546L55.1991 230.641L105.105 203.483L104.529 202.389Z" fill="#3F3D56"/>
<path d="M2.51442 216L1.93854 217.095L51.8518 244.239L52.4277 243.144L2.51442 216Z" fill="#3F3D56"/>
<path d="M185.924 313.384C227.639 313.384 261.456 243.23 261.456 156.692C261.456 70.1534 227.639 0 185.924 0C144.209 0 110.393 70.1534 110.393 156.692C110.393 243.23 144.209 313.384 185.924 313.384Z" fill="#E6E6E6"/>
<path d="M185.007 158.297C188.775 90.0792 196.368 44.0006 196.444 43.543L195.241 43.3357C195.164 43.7936 187.562 89.9261 183.789 158.208C180.306 221.229 179.467 316.551 195.24 412.776L196.445 412.572C180.69 316.466 181.529 221.25 185.007 158.297Z" fill="#3F3D56"/>
<path d="M253.538 125.116L185.246 162.28L185.822 163.374L254.115 126.211L253.538 125.116Z" fill="#3F3D56"/>
<path d="M113.727 143.743L113.151 144.837L181.454 181.982L182.03 180.887L113.727 143.743Z" fill="#3F3D56"/>
<path d="M123.002 374.443C138.588 374.443 151.223 348.232 151.223 315.898C151.223 283.565 138.588 257.354 123.002 257.354C107.416 257.354 94.7815 283.565 94.7815 315.898C94.7815 348.232 107.416 374.443 123.002 374.443Z" fill="#E6E6E6"/>
<path d="M122.977 318.421L123.144 318.738L148.66 304.853L148.084 303.758L123.03 317.392C124.417 291.448 127.252 274.031 127.31 273.688L126.106 273.481C126.044 273.855 122.674 294.538 121.479 324.465L96.2096 310.714L95.6337 311.809L121.15 325.694L121.454 325.115C120.497 349.816 121.034 380.702 126.106 411.642L127.31 411.438C121.78 377.704 121.658 344.033 122.977 318.421Z" fill="#3F3D56"/>
<path d="M342.486 238.623C332.673 221.62 313.26 220.827 313.26 220.827C313.26 220.827 294.343 218.347 282.207 244.243C270.896 268.38 255.285 291.686 279.694 297.336L284.103 283.263L286.833 298.384C290.309 298.64 293.795 298.701 297.277 298.567C323.417 297.701 348.311 298.82 347.509 289.201C346.444 276.413 351.928 254.984 342.486 238.623Z" fill="#2F2E41"/>
<path d="M274.089 374.819C273.815 376.596 273.418 378.352 272.899 380.072C272.316 381.755 271.414 383.312 270.881 385.012C269.18 390.433 271.538 396.477 275.305 400.661C278.562 404.269 282.779 406.838 287.445 408.054C290.843 408.93 294.376 409.057 297.878 409.178C307.575 409.516 317.521 409.817 326.71 406.621C329.614 405.586 332.419 404.28 335.086 402.719C335.93 402.306 336.673 401.706 337.26 400.964C337.961 399.941 338.05 398.614 338.044 397.363C338.024 393.148 337.19 388.954 337.388 384.743C337.498 382.41 337.923 380.08 337.714 377.755C337.432 375.123 336.358 372.644 334.638 370.657C332.919 368.669 330.638 367.27 328.106 366.65C325.5 366.076 322.796 366.389 320.143 366.65C313.255 367.329 306.337 367.646 299.417 367.601C292.346 367.554 285.32 366.448 278.284 366.332C276.204 366.298 276.246 366.956 275.584 369.02C274.973 370.922 274.474 372.858 274.089 374.819Z" fill="#2F2E41"/>
<path d="M246.441 371.392C244.541 370.902 242.582 370.689 240.622 370.758C238.562 370.89 236.552 371.462 234.724 372.437C232.896 373.411 231.291 374.767 230.013 376.415C228.747 378.087 227.838 380.009 227.343 382.058C226.848 384.107 226.778 386.239 227.137 388.317C227.611 390.568 228.387 392.743 229.443 394.779C230.987 397.991 232.838 401.196 235.695 403.254C237.415 404.385 239.268 405.29 241.212 405.948L256.26 411.761C258.474 412.616 260.688 413.472 262.923 414.265C274.149 418.245 285.86 420.632 297.727 421.36C301.34 421.581 305.008 421.642 308.533 420.799C309.395 420.683 310.184 420.246 310.747 419.573C311.034 419.059 311.203 418.487 311.241 417.898L312.167 411.25C312.374 410.324 312.347 409.36 312.088 408.447C311.664 407.33 310.601 406.627 309.587 406.03C299.694 400.203 288.143 396.988 279.816 388.991C277.855 387.108 276.215 384.124 273.833 382.845C271.132 381.395 267.951 380.567 265.16 379.231C259.057 376.309 253.056 372.952 246.441 371.392Z" fill="#2F2E41"/>
<path opacity="0.1" d="M261.465 380.355C266.783 382.064 289.24 393.905 293.089 398.039C292.573 398.23 275.068 388.17 274.542 388.008C269.768 386.538 264.967 385.059 260.433 382.909C259.52 382.476 254.507 380.443 254.734 379.262C254.99 377.93 260.52 380.051 261.465 380.355Z" fill="black"/>
<path d="M327.82 424.808C328.123 424.831 328.422 424.74 328.664 424.554C328.77 424.413 328.848 424.253 328.893 424.083C328.938 423.912 328.95 423.734 328.927 423.559L328.902 414.502C326.363 413.261 323.522 412.863 320.734 412.481L307.724 410.698C308.023 410.739 305.69 416.444 306.048 417.206C306.678 418.548 311.497 419.738 312.857 420.372C317.584 422.575 322.496 424.998 327.82 424.808Z" fill="#FFB8B8"/>
<path d="M287.003 414.47C284.547 414.872 281.805 415.226 280.214 417.187C278.197 419.674 279.056 423.381 280.018 426.461C280.161 427.084 280.447 427.662 280.855 428.149C281.512 428.813 282.518 428.911 283.439 428.971C285.679 429.116 288.063 429.23 290.02 428.103C290.907 427.502 291.76 426.851 292.577 426.154C294.018 425.17 295.605 424.426 297.277 423.95C300.347 422.96 303.509 422.292 306.713 421.956C307.975 421.897 309.225 421.671 310.43 421.284C311.034 421.084 311.584 420.744 312.038 420.292C312.492 419.84 312.837 419.288 313.047 418.678C313.501 417.032 312.568 415.354 311.673 413.911C310.559 412.113 309.378 410.22 307.717 408.896C305.293 406.965 304.094 408.447 301.652 409.683C297.034 412.021 292.095 413.635 287.003 414.47Z" fill="#FFB8B8"/>
<path d="M280.584 416.739L264.987 412.012C263.117 411.344 261.162 410.956 259.183 410.859C257.205 410.86 255.135 411.525 253.853 413.069C252.643 414.525 252.297 416.514 251.995 418.402L251.351 422.439C250.92 424.474 250.799 426.565 250.989 428.638C251.284 430.695 252.308 432.75 254.088 433.746C256.246 434.953 258.891 434.363 261.3 433.858C266.165 432.838 271.114 432.294 276.08 432.233C277.947 432.21 279.905 432.234 281.555 431.337C283.516 430.271 284.689 428.018 284.891 425.751C285.198 422.303 284.077 417.798 280.584 416.739Z" fill="#2F2E41"/>
<path d="M333.951 412.62C335.973 412.256 337.758 411.078 339.695 410.382C342.422 409.403 345.377 409.403 348.266 409.414C349.327 409.418 350.457 409.442 351.339 410.045C352.612 410.914 352.938 412.653 353.155 414.205L354.46 423.57C354.706 425.331 354.95 427.14 354.567 428.875C354.184 430.611 353.031 432.284 351.351 432.732C349.312 433.275 347.312 431.939 345.387 431.062C340.574 428.868 334.979 429.429 329.96 427.789C329.029 427.485 328.032 427.019 327.652 426.096C327.48 425.575 327.419 425.024 327.472 424.478C327.558 421.467 326.939 417.357 327.823 414.48C328.617 411.893 331.694 412.62 333.951 412.62Z" fill="#2F2E41"/>
<path d="M366.957 367.623C370.073 366.822 373.304 366.595 376.498 366.955C379.049 367.243 381.677 367.971 383.539 369.781C385.806 371.985 386.534 375.393 386.595 378.595C386.697 384.965 384.636 391.177 380.759 396.181C379.814 397.443 378.69 398.553 377.422 399.476C376.057 400.351 374.601 401.071 373.081 401.621L339.381 415.252C330.516 418.838 321.619 422.435 312.372 424.799C312.119 424.924 311.843 424.995 311.562 425.01C311.281 425.024 311 424.981 310.736 424.883C310.472 424.785 310.229 424.633 310.024 424.438C309.818 424.243 309.654 424.007 309.539 423.746C306.585 419.417 304.108 414.77 302.153 409.89C302.065 409.734 302.011 409.561 301.995 409.382C301.978 409.203 302 409.022 302.058 408.852C302.182 408.664 302.354 408.514 302.556 408.418L326.392 394.373C328.141 393.437 329.77 392.286 331.243 390.945C332.274 389.92 333.118 388.715 333.734 387.389C334.228 386.331 334.274 383.833 334.905 383.051C335.523 382.285 337.637 382.224 338.613 381.923C339.99 381.49 341.338 380.967 342.649 380.358C347.981 377.912 352.729 374.358 357.841 371.493C360.705 369.814 363.769 368.513 366.957 367.623Z" fill="#2F2E41"/>
<path opacity="0.1" d="M353.445 378.112C349.35 381.266 344.047 384.165 339.989 387.403C338.603 388.507 315.512 401.821 315.186 403.589C318.972 404.243 343.093 386.939 346.544 385.212C349.995 383.485 353.054 381.05 356.085 378.633C356.858 378.017 360.132 376.165 357.914 375.477C356.665 375.09 354.367 377.481 353.445 378.112Z" fill="black"/>
<path d="M312.429 281.403C325.241 281.403 335.627 270.844 335.627 257.818C335.627 244.792 325.241 234.233 312.429 234.233C299.618 234.233 289.232 244.792 289.232 257.818C289.232 270.844 299.618 281.403 312.429 281.403Z" fill="#FFB8B8"/>
<path d="M322.197 277.679C322.197 277.679 318.534 286.989 325.249 290.713C331.964 294.437 304.493 324.229 304.493 324.229L292.284 288.231C292.284 288.231 302.662 284.507 300.831 274.576L322.197 277.679Z" fill="#FFB8B8"/>
<path d="M306.935 303.126L321.719 286.533L341.731 296.92L338.679 370.158L333.795 375.744C333.795 375.744 313.04 394.364 281.296 378.848C281.296 378.848 270.308 369.538 270.918 355.262C271.529 340.987 269.697 339.125 269.697 339.125L269.087 288.851L299.226 282.838L306.935 303.126Z" fill="#F56076"/>
<path d="M239.145 382.099L235.376 393.906C235.376 393.906 217.224 412.974 223.789 418.142C230.355 423.31 245.084 396.066 245.084 396.066L247.799 382.736L239.145 382.099Z" fill="#FFB8B8"/>
<path d="M273.97 290.713L268.476 288.851C268.476 288.851 259.93 291.334 258.709 300.023C257.488 308.712 248.331 352.78 248.331 352.78C248.331 352.78 244.668 354.642 247.11 357.745C249.552 360.848 234.901 388.778 234.901 388.778L246.5 394.364C246.5 394.364 269.697 369.538 269.697 367.055C269.697 364.572 269.087 362.09 269.087 359.607C269.087 357.124 269.697 357.124 269.087 355.262C268.679 353.64 268.474 351.972 268.476 350.297L272.749 340.366L273.97 290.713Z" fill="#F56076"/>
<path d="M338.148 236.984L318.968 226.682L292.482 230.896L287.002 255.717L300.643 255.179L304.454 246.06V255.028L310.748 254.78L314.402 240.262L316.685 255.717L339.061 255.248L338.148 236.984Z" fill="#2F2E41"/>
<path d="M202.187 396.654V432.454H94.6361C94.6366 422.96 98.3465 413.854 104.95 407.141C111.553 400.427 120.509 396.655 129.847 396.654C139.932 393.458 151.592 392.44 164.241 392.775C176.175 393.086 188.988 394.606 202.187 396.654Z" fill="#FF6584"/>
<path d="M186.823 424.645H237.398C238.247 424.645 239.061 424.988 239.661 425.598C240.261 426.208 240.599 427.036 240.599 427.899C240.599 428.762 240.261 429.59 239.661 430.2C239.061 430.811 238.247 431.154 237.398 431.154H186.823V424.645Z" fill="#3F3D56"/>
<path d="M195.582 366.017L209.138 349.31C209.451 348.647 209.954 348.097 210.581 347.732C211.209 347.368 211.931 347.206 212.651 347.269C213.371 347.332 214.055 347.616 214.612 348.084C215.17 348.552 215.574 349.181 215.771 349.888L221.117 369.078L195.582 366.017Z" fill="#3F3D56"/>
<path d="M179.141 374.526L184.262 353.503C184.262 352.768 184.482 352.051 184.893 351.446C185.304 350.842 185.886 350.379 186.562 350.119C187.238 349.859 187.976 349.814 188.677 349.991C189.379 350.168 190.011 350.558 190.489 351.109L203.468 366.064L179.141 374.526Z" fill="#FF6584"/>
<path d="M94.6356 432.455H104.879V454.586C104.879 455.953 104.614 457.308 104.099 458.571C103.584 459.835 102.83 460.983 101.879 461.95C100.927 462.917 99.7982 463.684 98.5554 464.207C97.3127 464.731 95.9808 465 94.6356 465V432.455Z" fill="#FF6584"/>
<path d="M184.902 425.947H235.477C236.326 425.947 237.14 426.289 237.741 426.9C238.341 427.51 238.678 428.338 238.678 429.201C238.678 430.064 238.341 430.892 237.741 431.502C237.14 432.113 236.326 432.455 235.477 432.455H184.902V425.947Z" fill="#FF6584"/>
<path opacity="0.2" d="M202.187 396.654V432.256C196.991 432.817 191.737 432.174 186.821 430.374C181.905 428.575 177.453 425.666 173.801 421.867C170.15 418.067 167.392 413.476 165.736 408.437C164.08 403.398 163.569 398.044 164.241 392.775C176.175 393.086 188.988 394.606 202.187 396.654Z" fill="black"/>
<path d="M202.187 432.455C221.28 432.455 236.758 416.719 236.758 397.307C236.758 377.895 221.28 362.159 202.187 362.159C183.095 362.159 167.617 377.895 167.617 397.307C167.617 416.719 183.095 432.455 202.187 432.455Z" fill="#FF6584"/>
<path d="M235.477 409.023C237.599 409.023 239.318 404.943 239.318 399.911C239.318 394.878 237.599 390.798 235.477 390.798C233.356 390.798 231.636 394.878 231.636 399.911C231.636 404.943 233.356 409.023 235.477 409.023Z" fill="#3F3D56"/>
<path d="M226.194 392.751C226.725 392.751 227.155 391.731 227.155 390.473C227.155 389.215 226.725 388.195 226.194 388.195C225.664 388.195 225.234 389.215 225.234 390.473C225.234 391.731 225.664 392.751 226.194 392.751Z" fill="#3F3D56"/>
<path d="M233.236 388.195C233.767 388.195 234.197 387.175 234.197 385.917C234.197 384.658 233.767 383.638 233.236 383.638C232.706 383.638 232.276 384.658 232.276 385.917C232.276 387.175 232.706 388.195 233.236 388.195Z" fill="#3F3D56"/>
<path d="M199.287 361.768C199.287 361.768 197.366 358.37 197.366 356.297L199.287 361.768Z" fill="#3F3D56"/>
<path d="M200.132 359.57C200.132 359.57 201.179 355.798 202.637 354.348L200.132 359.57Z" fill="#3F3D56"/>
</g>
<defs>
<clipPath id="clip0_11_35">
<rect width="480" height="465" fill="white"/>
</clipPath>
</defs>
</svg>
